<svg width="1000" height="508" viewBox="0 0 905 508" fill="none" xmlns="http://www.w3.org/2000/svg">
<mask id="path-1-inside-1" fill="white">
<path fill-rule="evenodd" clip-rule="evenodd" d="M50 3.05176e-05C22.3858 3.05176e-05 0 22.3858 0 50V350C0 377.614 22.3858 400 50 400H787.908L904.327 507.826L900 295.628V50C900 22.3858 877.614 3.05176e-05 850 3.05176e-05H50Z"/>
</mask>
<path fill-rule="evenodd" clip-rule="evenodd" d="M50 3.05176e-05C22.3858 3.05176e-05 0 22.3858 0 50V350C0 377.614 22.3858 400 50 400H787.908L904.327 507.826L900 295.628V50C900 22.3858 877.614 3.05176e-05 850 3.05176e-05H50Z" fill="white"/>
<path d="M787.908 400L791.306 396.332L789.868 395H787.908V400ZM904.327 507.826L900.93 511.495L909.566 519.494L909.326 507.724L904.327 507.826ZM900 295.628H895V295.679L895.001 295.73L900 295.628ZM5 50C5 25.1472 25.1472 5.00003 50 5.00003V-4.99997C19.6243 -4.99997 -5 19.6244 -5 50H5ZM5 350V50H-5V350H5ZM50 395C25.1472 395 5 374.853 5 350H-5C-5 380.376 19.6244 405 50 405V395ZM787.908 395H50V405H787.908V395ZM784.511 403.668L900.93 511.495L907.725 504.158L791.306 396.332L784.511 403.668ZM909.326 507.724L904.999 295.526L895.001 295.73L899.328 507.928L909.326 507.724ZM895 50V295.628H905V50H895ZM850 5.00003C874.853 5.00003 895 25.1472 895 50H905C905 19.6244 880.376 -4.99997 850 -4.99997V5.00003ZM50 5.00003H850V-4.99997H50V5.00003Z" fill="black" mask="url(#path-1-inside-1)"/>
</svg>
